<svg width="30" height="28" viewBox="0 0 30 28" fill="none" xmlns="http://www.w3.org/2000/svg">
<path d="M25.875 16.7024V20.7559H29.9285V23.4583H25.875V27.5118H23.1726V23.4583H19.1191V20.7559H23.1726V16.7024H25.875ZM25.8858 0.488281C26.6262 0.488281 27.2262 1.08955 27.2262 1.83V14.4621C26.3582 14.1556 25.4443 13.9993 24.5238 14V3.19063H2.90499L2.90634 22.1071L15.4615 9.55062C15.6938 9.31751 16.0033 9.17733 16.3318 9.15643C16.6602 9.13553 16.985 9.23535 17.245 9.43712L17.372 9.55197L22.1619 14.3486C21.1143 14.6679 20.1422 15.196 19.3041 15.9011C18.4661 16.6062 17.7796 17.4737 17.2859 18.4514C16.7922 19.429 16.5016 20.4965 16.4317 21.5894C16.3617 22.6824 16.5138 23.7782 16.8788 24.8108L1.543 24.8094C1.18739 24.8091 0.846468 24.6676 0.595139 24.416C0.34381 24.1644 0.202637 23.8233 0.202637 23.4677V1.83C0.205109 1.47515 0.347078 1.13552 0.597873 0.88447C0.848668 0.633422 1.18816 0.491111 1.543 0.488281H25.8858ZM8.30969 5.89298C9.0264 5.89298 9.71375 6.1777 10.2205 6.68449C10.7273 7.19127 11.012 7.87863 11.012 8.59534C11.012 9.31204 10.7273 9.9994 10.2205 10.5062C9.71375 11.013 9.0264 11.2977 8.30969 11.2977C7.59298 11.2977 6.90563 11.013 6.39884 10.5062C5.89205 9.9994 5.60734 9.31204 5.60734 8.59534C5.60734 7.87863 5.89205 7.19127 6.39884 6.68449C6.90563 6.1777 7.59298 5.89298 8.30969 5.89298Z" fill="#414CAB"/>
</svg>
