<svg width="69" height="63" viewBox="0 0 69 63" fill="none" xmlns="http://www.w3.org/2000/svg">
<path d="M59.1807 37.6731V46.9231H68.4307V53.0898H59.1807V62.3398H53.0141V53.0898H43.7641V46.9231H53.0141V37.6731H59.1807ZM59.2054 0.673096C60.8951 0.673096 62.2641 2.04518 62.2641 3.73485V32.5609C60.2834 31.8613 58.198 31.5047 56.0974 31.5064V6.83976H6.76408L6.76716 50.0064L35.4175 21.353C35.9477 20.8211 36.654 20.5012 37.4035 20.4535C38.153 20.4058 38.8941 20.6336 39.4875 21.094L39.7773 21.3561L50.7078 32.3019C48.3171 33.0304 46.0987 34.2355 44.1863 35.8446C42.274 37.4536 40.7073 39.4333 39.5808 41.6642C38.4542 43.8951 37.7911 46.331 37.6315 48.8251C37.4719 51.3193 37.819 53.8199 38.6519 56.1762L3.65608 56.1731C2.84459 56.1723 2.06661 55.8493 1.49309 55.2752C0.919565 54.7011 0.597412 53.9228 0.597412 53.1113V3.73485C0.603055 2.9251 0.927021 2.15007 1.49933 1.57718C2.07163 1.0043 2.84633 0.679554 3.65608 0.673096H59.2054ZM19.0974 13.0064C20.7329 13.0064 22.3014 13.6561 23.4579 14.8126C24.6144 15.9691 25.2641 17.5376 25.2641 19.1731C25.2641 20.8086 24.6144 22.3771 23.4579 23.5336C22.3014 24.6901 20.7329 25.3398 19.0974 25.3398C17.4619 25.3398 15.8934 24.6901 14.7369 23.5336C13.5804 22.3771 12.9307 20.8086 12.9307 19.1731C12.9307 17.5376 13.5804 15.9691 14.7369 14.8126C15.8934 13.6561 17.4619 13.0064 19.0974 13.0064Z" fill="black"/>
</svg>
