<svg width="27" height="25" viewBox="0 0 27 25" fill="none" xmlns="http://www.w3.org/2000/svg">
<path d="M5.02561 10.1954V24.5954H0.29834V10.1954H5.02561ZM9.75288 24.5954C9.12601 24.5954 8.52481 24.3425 8.08154 23.8925C7.63827 23.4424 7.38925 22.8319 7.38925 22.1954V10.1954C7.38925 9.5354 7.64925 8.9354 8.08652 8.5034L15.8629 0.595398L17.1156 1.8674C17.4347 2.1914 17.6356 2.6354 17.6356 3.1274L17.6002 3.5114L16.4774 8.9954H23.9347C24.5616 8.9954 25.1628 9.24825 25.606 9.69834C26.0493 10.1484 26.2983 10.7589 26.2983 11.3954V13.7954C26.2983 14.1074 26.2392 14.3954 26.1329 14.6714L22.5638 23.1314C22.2092 23.9954 21.3702 24.5954 20.3892 24.5954H9.75288ZM9.75288 22.1954H20.4247L23.9347 13.7954V11.3954H13.5465L14.882 5.0114L9.75288 10.2314V22.1954Z" fill="#7077C2"/>
</svg>
