<svg width="135" height="45" viewBox="0 0 135 45" fill="none" xmlns="http://www.w3.org/2000/svg">
<path d="M49.1 29L48.82 27.3L50.1 27V17.12L48.7 16.98V15.18H54.24C55.1867 15.18 55.9933 15.34 56.66 15.66C57.3267 15.98 57.8333 16.4133 58.18 16.96C58.54 17.5067 58.72 18.12 58.72 18.8C58.72 19.4133 58.5933 19.9467 58.34 20.4C58.0867 20.84 57.78 21.1867 57.42 21.44C57.0733 21.6933 56.76 21.8533 56.48 21.92C57.0533 22.0667 57.5467 22.28 57.96 22.56C58.3733 22.84 58.6933 23.2067 58.92 23.66C59.16 24.1 59.28 24.6333 59.28 25.26C59.28 26.5133 58.8667 27.4533 58.04 28.08C57.2267 28.6933 56.16 29 54.84 29H49.1ZM52.72 26.9H54.2C54.6267 26.9 55.0133 26.8467 55.36 26.74C55.72 26.62 56.0067 26.4267 56.22 26.16C56.4333 25.88 56.54 25.5 56.54 25.02C56.54 24.3533 56.3067 23.8667 55.84 23.56C55.3867 23.24 54.7333 23.08 53.88 23.08H52.72V26.9ZM52.72 20.98H53.9C54.3667 20.98 54.7533 20.9 55.06 20.74C55.3667 20.58 55.5933 20.36 55.74 20.08C55.9 19.7867 55.98 19.46 55.98 19.1C55.98 18.4333 55.74 17.9667 55.26 17.7C54.7933 17.42 54.2467 17.28 53.62 17.28H52.72V20.98ZM64.8941 29.08C64.1607 29.08 63.4541 28.8933 62.7741 28.52C62.1074 28.1333 61.5607 27.5667 61.1341 26.82C60.7074 26.0733 60.4941 25.16 60.4941 24.08C60.4941 23 60.7074 22.1 61.1341 21.38C61.5607 20.6467 62.1074 20.1 62.7741 19.74C63.4541 19.3667 64.1607 19.18 64.8941 19.18C65.6274 19.18 66.3274 19.3667 66.9941 19.74C67.6741 20.1 68.2274 20.6467 68.6541 21.38C69.0941 22.1 69.3141 23 69.3141 24.08C69.3141 25.16 69.0941 26.0733 68.6541 26.82C68.2274 27.5667 67.6741 28.1333 66.9941 28.52C66.3274 28.8933 65.6274 29.08 64.8941 29.08ZM64.8941 27.2C65.2541 27.2 65.5807 27.1067 65.8741 26.92C66.1674 26.7333 66.4007 26.42 66.5741 25.98C66.7474 25.54 66.8341 24.9467 66.8341 24.2C66.8341 23.44 66.7474 22.8333 66.5741 22.38C66.4007 21.9133 66.1674 21.58 65.8741 21.38C65.5807 21.1667 65.2541 21.06 64.8941 21.06C64.6407 21.06 64.3941 21.12 64.1541 21.24C63.9274 21.3467 63.7207 21.5267 63.5341 21.78C63.3607 22.0333 63.2207 22.36 63.1141 22.76C63.0207 23.16 62.9741 23.64 62.9741 24.2C62.9741 24.9467 63.0607 25.54 63.2341 25.98C63.4074 26.42 63.6407 26.7333 63.9341 26.92C64.2274 27.1067 64.5474 27.2 64.8941 27.2ZM74.8745 29.08C74.1412 29.08 73.4345 28.8933 72.7545 28.52C72.0879 28.1333 71.5412 27.5667 71.1145 26.82C70.6879 26.0733 70.4745 25.16 70.4745 24.08C70.4745 23 70.6879 22.1 71.1145 21.38C71.5412 20.6467 72.0879 20.1 72.7545 19.74C73.4345 19.3667 74.1412 19.18 74.8745 19.18C75.6079 19.18 76.3079 19.3667 76.9745 19.74C77.6545 20.1 78.2079 20.6467 78.6345 21.38C79.0745 22.1 79.2945 23 79.2945 24.08C79.2945 25.16 79.0745 26.0733 78.6345 26.82C78.2079 27.5667 77.6545 28.1333 76.9745 28.52C76.3079 28.8933 75.6079 29.08 74.8745 29.08ZM74.8745 27.2C75.2345 27.2 75.5612 27.1067 75.8545 26.92C76.1479 26.7333 76.3812 26.42 76.5545 25.98C76.7279 25.54 76.8145 24.9467 76.8145 24.2C76.8145 23.44 76.7279 22.8333 76.5545 22.38C76.3812 21.9133 76.1479 21.58 75.8545 21.38C75.5612 21.1667 75.2345 21.06 74.8745 21.06C74.6212 21.06 74.3745 21.12 74.1345 21.24C73.9079 21.3467 73.7012 21.5267 73.5145 21.78C73.3412 22.0333 73.2012 22.36 73.0945 22.76C73.0012 23.16 72.9545 23.64 72.9545 24.2C72.9545 24.9467 73.0412 25.54 73.2145 25.98C73.3879 26.42 73.6212 26.7333 73.9145 26.92C74.2079 27.1067 74.5279 27.2 74.8745 27.2ZM80.4578 29L80.2178 27.72L81.3578 27.46V16.04H80.3178L80.1178 14.68L83.0778 14.26L83.7778 15V23.56L86.3378 20.74H85.2778L85.0778 19.18H88.6178L89.3178 20.48L86.5378 23.26L88.6778 27.54L89.6178 27.76L89.6378 29H86.6178L84.7578 25.04L83.7778 26.02V27.5L84.7178 27.72L84.6978 29H80.4578ZM94.1164 34.44C93.3297 34.44 92.6431 34.3067 92.0564 34.04C91.4831 33.7867 91.0364 33.4333 90.7164 32.98C90.4097 32.5267 90.2564 32.02 90.2564 31.46C90.2564 30.8333 90.4031 30.3067 90.6964 29.88C91.0031 29.4667 91.3697 29.1333 91.7964 28.88C91.6497 28.72 91.5297 28.5333 91.4364 28.32C91.3564 28.0933 91.3164 27.8333 91.3164 27.54C91.3164 27.1933 91.3831 26.8867 91.5164 26.62C91.6631 26.34 91.8431 26.1 92.0564 25.9C91.6031 25.6067 91.2231 25.22 90.9164 24.74C90.6231 24.2467 90.4764 23.6533 90.4764 22.96C90.4764 22.1467 90.6697 21.46 91.0564 20.9C91.4564 20.34 91.9564 19.9133 92.5564 19.62C93.1697 19.3267 93.8031 19.18 94.4564 19.18C94.9231 19.18 95.3764 19.2533 95.8164 19.4C96.2697 19.5467 96.6764 19.76 97.0364 20.04L99.2164 18.94L99.6764 19L99.8964 20.98L98.0364 21.2C98.1697 21.4533 98.2697 21.7267 98.3364 22.02C98.4164 22.3133 98.4564 22.6267 98.4564 22.96C98.4564 23.76 98.2564 24.4267 97.8564 24.96C97.4697 25.4933 96.9697 25.8933 96.3564 26.16C95.7564 26.4267 95.1231 26.56 94.4564 26.56C94.3631 26.56 94.2697 26.56 94.1764 26.56C94.0964 26.56 94.0164 26.5533 93.9364 26.54L93.5764 27.08L93.6164 27.36L95.6564 27.78C96.3631 27.9267 96.9497 28.1333 97.4164 28.4C97.8831 28.6533 98.2297 28.96 98.4564 29.32C98.6831 29.6933 98.7964 30.1267 98.7964 30.62C98.7964 31.42 98.5831 32.1067 98.1564 32.68C97.7431 33.2533 97.1831 33.6867 96.4764 33.98C95.7697 34.2867 94.9831 34.44 94.1164 34.44ZM94.6564 32.04C95.0297 32.04 95.3831 31.9933 95.7164 31.9C96.0497 31.82 96.3231 31.6933 96.5364 31.52C96.7631 31.36 96.8764 31.1733 96.8764 30.96C96.8764 30.76 96.7631 30.6 96.5364 30.48C96.3097 30.3733 96.0097 30.28 95.6364 30.2C95.2764 30.1333 94.8831 30.06 94.4564 29.98C94.0297 29.9133 93.6164 29.8133 93.2164 29.68C92.9231 29.8533 92.7164 30.04 92.5964 30.24C92.4897 30.4533 92.4364 30.66 92.4364 30.86C92.4364 31.0333 92.5031 31.2067 92.6364 31.38C92.7697 31.5667 92.9964 31.72 93.3164 31.84C93.6364 31.9733 94.0831 32.04 94.6564 32.04ZM94.4564 24.68C94.9897 24.68 95.3764 24.5 95.6164 24.14C95.8564 23.7667 95.9764 23.34 95.9764 22.86C95.9764 22.3933 95.8564 21.98 95.6164 21.62C95.3764 21.2467 94.9897 21.06 94.4564 21.06C93.9364 21.06 93.5564 21.2467 93.3164 21.62C93.0764 21.98 92.9564 22.3933 92.9564 22.86C92.9564 23.34 93.0764 23.7667 93.3164 24.14C93.5564 24.5 93.9364 24.68 94.4564 24.68ZM100.755 29L100.455 27.72L101.655 27.4V20.98L100.635 21.06L100.415 19.7L103.195 19.18L103.875 20.22C104.142 19.8867 104.462 19.6333 104.835 19.46C105.208 19.2733 105.568 19.18 105.915 19.18C106.502 19.18 107.028 19.32 107.495 19.6C107.975 19.8667 108.308 20.3067 108.495 20.92L106.075 22.18L105.475 21.18C105.315 21.18 105.122 21.2467 104.895 21.38C104.682 21.5133 104.488 21.7333 104.315 22.04C104.155 22.3467 104.075 22.76 104.075 23.28V27.02L106.495 27.72L106.515 29H100.755ZM111.91 29.08C111.296 29.08 110.77 28.9667 110.33 28.74C109.903 28.5 109.576 28.18 109.35 27.78C109.123 27.3667 109.01 26.9133 109.01 26.42C109.01 25.8333 109.156 25.34 109.45 24.94C109.756 24.54 110.15 24.22 110.63 23.98C111.123 23.7267 111.656 23.5467 112.23 23.44C112.803 23.32 113.363 23.2533 113.91 23.24V21.66C113.91 21.5133 113.803 21.38 113.59 21.26C113.39 21.1267 113.063 21.06 112.61 21.06C112.503 21.06 112.396 21.0667 112.29 21.08C112.183 21.08 112.096 21.0933 112.03 21.12L111.51 22.6L109.03 21.52C109.31 20.8933 109.79 20.3467 110.47 19.88C111.15 19.4133 111.956 19.18 112.89 19.18C113.463 19.18 114.01 19.28 114.53 19.48C115.05 19.68 115.476 20.0133 115.81 20.48C116.156 20.9467 116.33 21.5867 116.33 22.4V26.9C116.33 27.0733 116.363 27.1933 116.43 27.26C116.51 27.3133 116.596 27.34 116.69 27.34C116.756 27.34 116.816 27.3333 116.87 27.32C116.936 27.3067 116.976 27.3 116.99 27.3L117.35 28.42C117.256 28.5 117.07 28.6333 116.79 28.82C116.51 28.9933 116.163 29.08 115.75 29.08C115.35 29.08 115.016 28.9933 114.75 28.82C114.496 28.6467 114.296 28.4133 114.15 28.12C113.883 28.3867 113.556 28.6133 113.17 28.8C112.796 28.9867 112.376 29.08 111.91 29.08ZM112.39 27.16C112.763 27.16 113.083 27.06 113.35 26.86C113.63 26.6467 113.816 26.4333 113.91 26.22V24.92C113.656 24.9333 113.39 24.96 113.11 25C112.83 25.04 112.563 25.1067 112.31 25.2C112.07 25.2933 111.87 25.4267 111.71 25.6C111.563 25.76 111.49 25.9733 111.49 26.24C111.49 26.4667 111.563 26.68 111.71 26.88C111.856 27.0667 112.083 27.16 112.39 27.16ZM118.548 29L118.288 27.74L119.448 27.46V21.04H118.428L118.208 19.68L121.168 19.16L121.868 19.9C122.121 19.7133 122.461 19.5467 122.888 19.4C123.314 19.2533 123.748 19.18 124.188 19.18C124.694 19.18 125.161 19.26 125.588 19.42C126.014 19.5667 126.368 19.8 126.648 20.12C126.968 19.88 127.288 19.6933 127.608 19.56C127.941 19.4267 128.274 19.3333 128.608 19.28C128.941 19.2133 129.281 19.18 129.628 19.18C130.174 19.18 130.674 19.2733 131.128 19.46C131.594 19.6467 131.961 19.9333 132.228 20.32C132.508 20.7067 132.648 21.2067 132.648 21.82V27.48L133.668 27.72L133.648 29H129.108V27.74L130.228 27.5V22.38C130.228 21.9533 130.114 21.64 129.888 21.44C129.674 21.24 129.374 21.14 128.987 21.14C128.601 21.14 128.234 21.24 127.888 21.44C127.554 21.6267 127.341 21.7733 127.248 21.88V27.52L128.308 27.72L128.288 29H123.888V27.72L124.848 27.5V22.38C124.848 21.9533 124.734 21.64 124.508 21.44C124.294 21.24 123.994 21.14 123.608 21.14C123.221 21.14 122.854 21.24 122.508 21.44C122.174 21.6267 121.961 21.7733 121.868 21.88V27.5L123.008 27.74L122.988 29H118.548Z" fill="#2E3467"/>
<path d="M26.7188 14.0625H36.5625V16.875H26.7188V14.0625ZM26.7188 21.0938H36.5625V23.9062H26.7188V21.0938ZM26.7188 28.125H36.5625V30.9375H26.7188V28.125ZM8.4375 14.0625H18.2812V16.875H8.4375V14.0625ZM8.4375 21.0938H18.2812V23.9062H8.4375V21.0938ZM8.4375 28.125H18.2812V30.9375H8.4375V28.125Z" fill="#2E3467"/>
<path d="M39.375 7.03125H5.625C4.87931 7.03199 4.16437 7.32855 3.63708 7.85583C3.1098 8.38312 2.81324 9.09806 2.8125 9.84375V35.1562C2.81324 35.9019 3.1098 36.6169 3.63708 37.1442C4.16437 37.6715 4.87931 37.968 5.625 37.9688H39.375C40.1207 37.968 40.8356 37.6715 41.3629 37.1442C41.8902 36.6169 42.1868 35.9019 42.1875 35.1562V9.84375C42.1868 9.09806 41.8902 8.38312 41.3629 7.85583C40.8356 7.32855 40.1207 7.03199 39.375 7.03125ZM5.625 9.84375H21.0938V35.1562H5.625V9.84375ZM23.9062 35.1562V9.84375H39.375V35.1562H23.9062Z" fill="#2E3467"/>
</svg>
