<svg width="153" height="52" viewBox="0 0 153 52" fill="none" xmlns="http://www.w3.org/2000/svg">
<path d="M55.7135 33.2856L55.3958 31.3567L56.8482 31.0163V19.8055L55.2596 19.6466V17.6042H61.5458C62.62 17.6042 63.5353 17.7857 64.2918 18.1488C65.0482 18.5119 65.6231 19.0036 66.0165 19.6239C66.425 20.2442 66.6292 20.9402 66.6292 21.7118C66.6292 22.4077 66.4855 23.0129 66.198 23.5273C65.9106 24.0265 65.5626 24.4199 65.1541 24.7074C64.7608 24.9948 64.4052 25.1764 64.0875 25.252C64.7381 25.4184 65.2979 25.6605 65.7669 25.9782C66.2359 26.2959 66.599 26.712 66.8562 27.2264C67.1285 27.7256 67.2647 28.3308 67.2647 29.0419C67.2647 30.464 66.7957 31.5306 65.8576 32.2417C64.9348 32.9377 63.7244 33.2856 62.2266 33.2856H55.7135ZM59.8211 30.9028H61.5004C61.9845 30.9028 62.4233 30.8423 62.8167 30.7212C63.2251 30.5851 63.5504 30.3657 63.7925 30.0631C64.0346 29.7454 64.1556 29.3142 64.1556 28.7696C64.1556 28.0131 63.8908 27.4609 63.3613 27.1129C62.8469 26.7498 62.1056 26.5683 61.1373 26.5683H59.8211V30.9028ZM59.8211 24.1854H61.16C61.6895 24.1854 62.1283 24.0946 62.4762 23.9131C62.8242 23.7315 63.0814 23.4819 63.2478 23.1642C63.4294 22.8313 63.5202 22.4607 63.5202 22.0522C63.5202 21.2957 63.2478 20.7662 62.7032 20.4636C62.1737 20.1459 61.5534 19.987 60.8423 19.987H59.8211V24.1854ZM73.6349 33.3764C72.8028 33.3764 72.0009 33.1646 71.2294 32.741C70.4729 32.3022 69.8526 31.6592 69.3685 30.812C68.8843 29.9648 68.6423 28.9284 68.6423 27.7029C68.6423 26.4775 68.8843 25.4562 69.3685 24.6393C69.8526 23.8072 70.4729 23.1869 71.2294 22.7784C72.0009 22.3547 72.8028 22.1429 73.6349 22.1429C74.467 22.1429 75.2613 22.3547 76.0178 22.7784C76.7894 23.1869 77.4172 23.8072 77.9014 24.6393C78.4006 25.4562 78.6503 26.4775 78.6503 27.7029C78.6503 28.9284 78.4006 29.9648 77.9014 30.812C77.4172 31.6592 76.7894 32.3022 76.0178 32.741C75.2613 33.1646 74.467 33.3764 73.6349 33.3764ZM73.6349 31.2432C74.0434 31.2432 74.4141 31.1373 74.7469 30.9255C75.0798 30.7137 75.3445 30.3581 75.5412 29.8589C75.7379 29.3596 75.8362 28.6863 75.8362 27.8391C75.8362 26.9767 75.7379 26.2884 75.5412 25.774C75.3445 25.2444 75.0798 24.8662 74.7469 24.6393C74.4141 24.3972 74.0434 24.2762 73.6349 24.2762C73.3475 24.2762 73.0676 24.3442 72.7952 24.4804C72.538 24.6014 72.3035 24.8057 72.0917 25.0931C71.895 25.3806 71.7362 25.7513 71.6152 26.2051C71.5092 26.659 71.4563 27.2037 71.4563 27.8391C71.4563 28.6863 71.5546 29.3596 71.7513 29.8589C71.948 30.3581 72.2128 30.7137 72.5456 30.9255C72.8784 31.1373 73.2415 31.2432 73.6349 31.2432ZM84.9597 33.3764C84.1276 33.3764 83.3257 33.1646 82.5541 32.741C81.7977 32.3022 81.1774 31.6592 80.6932 30.812C80.2091 29.9648 79.967 28.9284 79.967 27.7029C79.967 26.4775 80.2091 25.4562 80.6932 24.6393C81.1774 23.8072 81.7977 23.1869 82.5541 22.7784C83.3257 22.3547 84.1276 22.1429 84.9597 22.1429C85.7918 22.1429 86.5861 22.3547 87.3426 22.7784C88.1141 23.1869 88.742 23.8072 89.2261 24.6393C89.7254 25.4562 89.975 26.4775 89.975 27.7029C89.975 28.9284 89.7254 29.9648 89.2261 30.812C88.742 31.6592 88.1141 32.3022 87.3426 32.741C86.5861 33.1646 85.7918 33.3764 84.9597 33.3764ZM84.9597 31.2432C85.3682 31.2432 85.7389 31.1373 86.0717 30.9255C86.4045 30.7137 86.6693 30.3581 86.866 29.8589C87.0627 29.3596 87.161 28.6863 87.161 27.8391C87.161 26.9767 87.0627 26.2884 86.866 25.774C86.6693 25.2444 86.4045 24.8662 86.0717 24.6393C85.7389 24.3972 85.3682 24.2762 84.9597 24.2762C84.6722 24.2762 84.3923 24.3442 84.12 24.4804C83.8628 24.6014 83.6283 24.8057 83.4165 25.0931C83.2198 25.3806 83.061 25.7513 82.9399 26.2051C82.834 26.659 82.7811 27.2037 82.7811 27.8391C82.7811 28.6863 82.8794 29.3596 83.0761 29.8589C83.2728 30.3581 83.5375 30.7137 83.8704 30.9255C84.2032 31.1373 84.5663 31.2432 84.9597 31.2432ZM91.295 33.2856L91.0227 31.8332L92.3162 31.5382V18.58H91.1362L90.9092 17.0368L94.2679 16.5602L95.0622 17.3999V27.1129L97.967 23.9131H96.7642L96.5373 22.1429H100.554L101.348 23.618L98.194 26.7725L100.622 31.629L101.689 31.8786L101.712 33.2856H98.2847L96.1742 28.7923L95.0622 29.9043V31.5836L96.1288 31.8332L96.1061 33.2856H91.295ZM106.793 39.4584C105.901 39.4584 105.122 39.3071 104.456 39.0045C103.805 38.7171 103.298 38.3161 102.935 37.8017C102.587 37.2873 102.413 36.7124 102.413 36.077C102.413 35.3659 102.58 34.7683 102.913 34.2842C103.261 33.8152 103.677 33.4369 104.161 33.1495C103.994 32.9679 103.858 32.7561 103.752 32.5141C103.662 32.2569 103.616 31.9618 103.616 31.629C103.616 31.2356 103.692 30.8877 103.843 30.5851C104.01 30.2674 104.214 29.995 104.456 29.7681C103.941 29.4352 103.51 28.9965 103.162 28.4518C102.829 27.8921 102.663 27.2188 102.663 26.4321C102.663 25.5092 102.882 24.73 103.321 24.0946C103.775 23.4592 104.342 22.975 105.023 22.6422C105.719 22.3094 106.438 22.1429 107.179 22.1429C107.709 22.1429 108.223 22.2262 108.722 22.3926C109.237 22.559 109.698 22.8011 110.107 23.1188L112.58 21.8706L113.102 21.9387L113.352 24.1854L111.241 24.435C111.393 24.7225 111.506 25.0326 111.582 25.3655C111.673 25.6983 111.718 26.0539 111.718 26.4321C111.718 27.3398 111.491 28.0963 111.037 28.7015C110.598 29.3066 110.031 29.7605 109.335 30.0631C108.654 30.3657 107.936 30.517 107.179 30.517C107.073 30.517 106.967 30.517 106.861 30.517C106.771 30.517 106.68 30.5094 106.589 30.4943L106.181 31.107L106.226 31.4247L108.541 31.9013C109.343 32.0677 110.008 32.3022 110.538 32.6048C111.067 32.8923 111.461 33.2403 111.718 33.6487C111.975 34.0724 112.104 34.5641 112.104 35.1239C112.104 36.0316 111.862 36.8108 111.378 37.4613C110.909 38.1119 110.273 38.6036 109.471 38.9364C108.669 39.2844 107.777 39.4584 106.793 39.4584ZM107.406 36.7351C107.83 36.7351 108.231 36.6822 108.609 36.5763C108.987 36.4855 109.297 36.3418 109.539 36.1451C109.797 35.9635 109.925 35.7517 109.925 35.5096C109.925 35.2827 109.797 35.1012 109.539 34.965C109.282 34.844 108.942 34.7381 108.518 34.6473C108.11 34.5716 107.663 34.4884 107.179 34.3976C106.695 34.322 106.226 34.2085 105.772 34.0572C105.439 34.2539 105.205 34.4657 105.069 34.6927C104.948 34.9347 104.887 35.1692 104.887 35.3962C104.887 35.5929 104.963 35.7895 105.114 35.9862C105.265 36.198 105.522 36.372 105.886 36.5082C106.249 36.6595 106.756 36.7351 107.406 36.7351ZM107.179 28.3838C107.784 28.3838 108.223 28.1795 108.495 27.771C108.768 27.3474 108.904 26.8633 108.904 26.3186C108.904 25.7891 108.768 25.3201 108.495 24.9116C108.223 24.488 107.784 24.2762 107.179 24.2762C106.589 24.2762 106.158 24.488 105.886 24.9116C105.613 25.3201 105.477 25.7891 105.477 26.3186C105.477 26.8633 105.613 27.3474 105.886 27.771C106.158 28.1795 106.589 28.3838 107.179 28.3838ZM114.326 33.2856L113.986 31.8332L115.347 31.4701V24.1854L114.19 24.2762L113.94 22.733L117.095 22.1429L117.866 23.323C118.169 22.9448 118.532 22.6573 118.956 22.4607C119.379 22.2488 119.788 22.1429 120.181 22.1429C120.847 22.1429 121.444 22.3018 121.974 22.6195C122.519 22.9221 122.897 23.4214 123.109 24.1173L120.363 25.547L119.682 24.4123C119.5 24.4123 119.281 24.488 119.024 24.6393C118.782 24.7906 118.562 25.0402 118.366 25.3882C118.184 25.7361 118.093 26.2051 118.093 26.7952V31.0389L120.839 31.8332L120.862 33.2856H114.326ZM126.983 33.3764C126.287 33.3764 125.69 33.2478 125.19 32.9906C124.706 32.7183 124.336 32.3552 124.078 31.9013C123.821 31.4323 123.693 30.9179 123.693 30.3581C123.693 29.6924 123.859 29.1327 124.192 28.6788C124.54 28.2249 124.986 27.8618 125.531 27.5895C126.091 27.302 126.696 27.0978 127.346 26.9767C127.997 26.8406 128.632 26.7649 129.253 26.7498V24.957C129.253 24.7906 129.132 24.6393 128.89 24.5031C128.663 24.3518 128.292 24.2762 127.778 24.2762C127.657 24.2762 127.536 24.2837 127.414 24.2989C127.293 24.2989 127.195 24.314 127.119 24.3442L126.529 26.0236L123.715 24.7981C124.033 24.0871 124.578 23.4668 125.349 22.9372C126.121 22.4077 127.036 22.1429 128.095 22.1429C128.746 22.1429 129.366 22.2564 129.956 22.4833C130.546 22.7103 131.03 23.0885 131.409 23.618C131.802 24.1476 131.999 24.8738 131.999 25.7967V30.9028C131.999 31.0995 132.036 31.2356 132.112 31.3113C132.203 31.3718 132.301 31.4021 132.407 31.4021C132.483 31.4021 132.551 31.3945 132.611 31.3794C132.687 31.3642 132.732 31.3567 132.748 31.3567L133.156 32.6275C133.05 32.7183 132.838 32.8696 132.521 33.0814C132.203 33.2781 131.81 33.3764 131.341 33.3764C130.887 33.3764 130.508 33.2781 130.206 33.0814C129.918 32.8847 129.691 32.62 129.525 32.2871C129.222 32.5897 128.852 32.8469 128.413 33.0587C127.989 33.2705 127.513 33.3764 126.983 33.3764ZM127.528 31.1978C127.952 31.1978 128.315 31.0843 128.617 30.8574C128.935 30.6153 129.147 30.3733 129.253 30.1312V28.6561C128.965 28.6712 128.663 28.7015 128.345 28.7469C128.027 28.7923 127.725 28.8679 127.437 28.9738C127.165 29.0797 126.938 29.231 126.756 29.4277C126.59 29.6092 126.507 29.8513 126.507 30.1539C126.507 30.4111 126.59 30.6532 126.756 30.8801C126.923 31.0919 127.18 31.1978 127.528 31.1978ZM134.515 33.2856L134.22 31.8559L135.536 31.5382V24.2535H134.379L134.129 22.7103L137.488 22.1202L138.282 22.9599C138.57 22.7481 138.956 22.559 139.44 22.3926C139.924 22.2262 140.416 22.1429 140.915 22.1429C141.49 22.1429 142.019 22.2337 142.503 22.4153C142.988 22.5817 143.389 22.8465 143.706 23.2096C144.069 22.9372 144.432 22.7254 144.796 22.5741C145.174 22.4228 145.552 22.3169 145.93 22.2564C146.308 22.1808 146.694 22.1429 147.088 22.1429C147.708 22.1429 148.275 22.2488 148.79 22.4607C149.319 22.6725 149.735 22.9977 150.038 23.4365C150.356 23.8752 150.514 24.4426 150.514 25.1385V31.5609L151.672 31.8332L151.649 33.2856H146.498V31.8559L147.768 31.5836V25.774C147.768 25.2898 147.64 24.9343 147.383 24.7074C147.141 24.4804 146.8 24.3669 146.361 24.3669C145.923 24.3669 145.507 24.4804 145.113 24.7074C144.735 24.9192 144.493 25.0856 144.387 25.2066V31.6063L145.59 31.8332L145.567 33.2856H140.574V31.8332L141.664 31.5836V25.774C141.664 25.2898 141.535 24.9343 141.278 24.7074C141.036 24.4804 140.695 24.3669 140.257 24.3669C139.818 24.3669 139.402 24.4804 139.009 24.7074C138.63 24.9192 138.388 25.0856 138.282 25.2066V31.5836L139.576 31.8559L139.553 33.2856H134.515Z" fill="white"/>
<path d="M30.3177 16.8953H41.4874V20.0866H30.3177V16.8953ZM30.3177 24.8736H41.4874V28.0649H30.3177V24.8736ZM30.3177 32.8519H41.4874V36.0432H30.3177V32.8519ZM9.57407 16.8953H20.7437V20.0866H9.57407V16.8953ZM9.57407 24.8736H20.7437V28.0649H9.57407V24.8736ZM9.57407 32.8519H20.7437V36.0432H9.57407V32.8519Z" fill="white"/>
<path d="M44.6785 8.91699H6.38258C5.53645 8.91784 4.72521 9.25434 4.12691 9.85264C3.5286 10.451 3.1921 11.2622 3.19125 12.1083V40.8303C3.1921 41.6764 3.5286 42.4877 4.12691 43.086C4.72521 43.6843 5.53645 44.0208 6.38258 44.0216H44.6785C45.5247 44.0208 46.3359 43.6843 46.9342 43.086C47.5325 42.4877 47.869 41.6764 47.8699 40.8303V12.1083C47.869 11.2622 47.5325 10.451 46.9342 9.85264C46.3359 9.25434 45.5247 8.91784 44.6785 8.91699ZM6.38258 12.1083H23.9349V40.8303H6.38258V12.1083ZM27.1262 40.8303V12.1083H44.6785V40.8303H27.1262Z" fill="white"/>
</svg>
